<svg xmlns="http://www.w3.org/2000/svg" xmlns:xlink="http://www.w3.org/1999/xlink" viewBox="0,0,256,256" width="48px" height="48px" fill-rule="nonzero"><defs><linearGradient x1="14.101" y1="6.854" x2="34.491" y2="42.171" gradientUnits="userSpaceOnUse" id="color-1"><stop offset="0" stop-color="#ea504d"></stop><stop offset="0.736" stop-color="#e83e3b"></stop><stop offset="1" stop-color="#e73634"></stop></linearGradient></defs><g transform=""><g fill-opacity="0" fill="#dddddd" fill-rule="nonzero" stroke="none" stroke-width="1" stroke-linecap="butt" stroke-linejoin="miter" stroke-miterlimit="10" stroke-dasharray="" stroke-dashoffset="0" font-family="none" font-weight="none" font-size="none" text-anchor="none" style="mix-blend-mode: normal"><path d="M0,256v-256h256v256z" id="bgRectangle"></path></g><g fill="none" fill-rule="nonzero" stroke="none" stroke-width="1" stroke-linecap="butt" stroke-linejoin="miter" stroke-miterlimit="10" stroke-dasharray="" stroke-dashoffset="0" font-family="none" font-weight="none" font-size="none" text-anchor="none" style="mix-blend-mode: normal"><g transform="scale(5.33333,5.33333)"><path d="M44,24c0,11.045 -8.955,20 -20,20c-11.045,0 -20,-8.955 -20,-20c0,-11.045 8.955,-20 20,-20c11.045,0 20,8.955 20,20z" fill="url(#color-1)"></path><path d="M24,37c-7.168,0 -13,-5.832 -13,-13c0,-7.168 5.832,-13 13,-13c7.168,0 13,5.832 13,13c0,7.168 -5.832,13 -13,13zM24,12c-6.617,0 -12,5.383 -12,12c0,6.617 5.383,12 12,12c6.617,0 12,-5.383 12,-12c0,-6.617 -5.383,-12 -12,-12z" fill="#ffffff"></path><path d="M20,18v12l10,-6z" fill="#ffffff"></path></g></g></g></svg>